<?xml version="1.0" encoding="UTF-8" standalone="no"?>
<!DOCTYPE svg PUBLIC "-//W3C//DTD SVG 1.1//EN"
 "http://www.w3.org/Graphics/SVG/1.1/DTD/svg11.dtd">
<!-- Generated by graphviz version 2.38.0 (20140413.2041)
 -->
<!-- Title: red_black_tree Pages: 1 -->
<svg width="800pt" height="332pt"
 viewBox="0.00 0.00 799.59 332.00" xmlns="http://www.w3.org/2000/svg" xmlns:xlink="http://www.w3.org/1999/xlink">
<g id="graph0" class="graph" transform="scale(1 1) rotate(0) translate(4 328)">
<title>red_black_tree</title>
<polygon fill="white" stroke="none" points="-4,4 -4,-328 795.588,-328 795.588,4 -4,4"/>
<!-- N139640555099848 -->
<g id="node1" class="node"><title>N139640555099848</title>
<ellipse fill="none" stroke="BLACK" cx="490.299" cy="-306" rx="130.777" ry="18"/>
<text text-anchor="middle" x="490.299" y="-302.3" font-family="Times,serif" font-size="14.00">[17, 19], color: BLACK, max: 40</text>
</g>
<!-- N139640555099776 -->
<g id="node2" class="node"><title>N139640555099776</title>
<ellipse fill="none" stroke="RED" cx="411.299" cy="-234" rx="118.079" ry="18"/>
<text text-anchor="middle" x="411.299" y="-230.3" font-family="Times,serif" font-size="14.00">[10, 30], color: RED, max: 30</text>
</g>
<!-- N139640555099848&#45;&gt;N139640555099776 -->
<g id="edge11" class="edge"><title>N139640555099848&#45;&gt;N139640555099776</title>
<path fill="none" stroke="black" d="M471.175,-288.055C461.18,-279.199 448.788,-268.219 437.876,-258.549"/>
<polygon fill="black" stroke="black" points="440.052,-255.801 430.246,-251.789 435.41,-261.04 440.052,-255.801"/>
</g>
<!-- N139640555100064 -->
<g id="node8" class="node"><title>N139640555100064</title>
<ellipse fill="none" stroke="RED" cx="673.299" cy="-90" rx="118.079" ry="18"/>
<text text-anchor="middle" x="673.299" y="-86.3" font-family="Times,serif" font-size="14.00">[30, 40], color: RED, max: 40</text>
</g>
<!-- N139640555099848&#45;&gt;N139640555100064 -->
<g id="edge14" class="edge"><title>N139640555099848&#45;&gt;N139640555100064</title>
<path fill="none" stroke="black" d="M506.03,-287.963C515.483,-277.643 527.695,-264.166 538.299,-252 579.659,-204.542 626.606,-147.903 652.811,-116.029"/>
<polygon fill="black" stroke="black" points="655.68,-118.051 659.321,-108.101 650.27,-113.608 655.68,-118.051"/>
</g>
<!-- N139640555099920 -->
<g id="node3" class="node"><title>N139640555099920</title>
<ellipse fill="none" stroke="BLACK" cx="130.299" cy="-162" rx="126.178" ry="18"/>
<text text-anchor="middle" x="130.299" y="-158.3" font-family="Times,serif" font-size="14.00">[5, 20], color: BLACK, max: 20</text>
</g>
<!-- N139640555099776&#45;&gt;N139640555099920 -->
<g id="edge5" class="edge"><title>N139640555099776&#45;&gt;N139640555099920</title>
<path fill="none" stroke="black" d="M352.392,-218.326C307.919,-207.247 246.754,-192.01 199.872,-180.331"/>
<polygon fill="black" stroke="black" points="200.645,-176.917 190.096,-177.896 198.953,-183.71 200.645,-176.917"/>
</g>
<!-- N139640555099992 -->
<g id="node6" class="node"><title>N139640555099992</title>
<ellipse fill="none" stroke="BLACK" cx="411.299" cy="-162" rx="130.777" ry="18"/>
<text text-anchor="middle" x="411.299" y="-158.3" font-family="Times,serif" font-size="14.00">[12, 15], color: BLACK, max: 15</text>
</g>
<!-- N139640555099776&#45;&gt;N139640555099992 -->
<g id="edge10" class="edge"><title>N139640555099776&#45;&gt;N139640555099992</title>
<path fill="none" stroke="black" d="M411.299,-215.697C411.299,-207.983 411.299,-198.712 411.299,-190.112"/>
<polygon fill="black" stroke="black" points="414.799,-190.104 411.299,-180.104 407.799,-190.104 414.799,-190.104"/>
</g>
<!-- N139640555100208 -->
<g id="node4" class="node"><title>N139640555100208</title>
<ellipse fill="none" stroke="BLACK" cx="345.299" cy="-18" rx="83.6854" ry="18"/>
<text text-anchor="middle" x="345.299" y="-14.3" font-family="Times,serif" font-size="14.00">Sentinel empty node</text>
</g>
<!-- N139640555099920&#45;&gt;N139640555100208 -->
<g id="edge1" class="edge"><title>N139640555099920&#45;&gt;N139640555100208</title>
<path fill="none" stroke="black" d="M61.2411,-146.866C40.3579,-139.014 19.6963,-126.842 7.2986,-108 -1.49616,-94.6339 -3.10194,-84.1585 7.2986,-72 38.249,-35.8183 162.996,-24.1682 251.919,-20.5139"/>
<polygon fill="black" stroke="black" points="252.175,-24.0067 262.034,-20.1261 251.907,-17.0119 252.175,-24.0067"/>
</g>
<!-- N139640555100352 -->
<g id="node5" class="node"><title>N139640555100352</title>
<ellipse fill="none" stroke="RED" cx="130.299" cy="-90" rx="114.28" ry="18"/>
<text text-anchor="middle" x="130.299" y="-86.3" font-family="Times,serif" font-size="14.00">[7, 10], color: RED, max: 10</text>
</g>
<!-- N139640555099920&#45;&gt;N139640555100352 -->
<g id="edge4" class="edge"><title>N139640555099920&#45;&gt;N139640555100352</title>
<path fill="none" stroke="black" d="M130.299,-143.697C130.299,-135.983 130.299,-126.712 130.299,-118.112"/>
<polygon fill="black" stroke="black" points="133.799,-118.104 130.299,-108.104 126.799,-118.104 133.799,-118.104"/>
</g>
<!-- N139640555100352&#45;&gt;N139640555100208 -->
<g id="edge2" class="edge"><title>N139640555100352&#45;&gt;N139640555100208</title>
<path fill="none" stroke="black" d="M173.066,-73.2034C205.853,-62.109 251.338,-47.2861 287.373,-35.9455"/>
<polygon fill="black" stroke="black" points="288.772,-39.1752 297.268,-32.8453 286.679,-32.4954 288.772,-39.1752"/>
</g>
<!-- N139640555100352&#45;&gt;N139640555100208 -->
<g id="edge3" class="edge"><title>N139640555100352&#45;&gt;N139640555100208</title>
<path fill="none" stroke="black" d="M182.354,-73.8972C216.821,-63.1059 261.682,-48.5358 295.648,-37.1178"/>
<polygon fill="black" stroke="black" points="297.013,-40.351 305.368,-33.8353 294.773,-33.719 297.013,-40.351"/>
</g>
<!-- N139640555099992&#45;&gt;N139640555100208 -->
<g id="edge6" class="edge"><title>N139640555099992&#45;&gt;N139640555100208</title>
<path fill="none" stroke="black" d="M343.884,-146.482C323.507,-138.602 303.358,-126.51 291.299,-108 282.564,-94.5943 285.107,-86.7533 291.299,-72 296.056,-60.6644 304.552,-50.5337 313.417,-42.2419"/>
<polygon fill="black" stroke="black" points="315.978,-44.6528 321.218,-35.4444 311.379,-39.3752 315.978,-44.6528"/>
</g>
<!-- N139640555100280 -->
<g id="node7" class="node"><title>N139640555100280</title>
<ellipse fill="none" stroke="RED" cx="418.299" cy="-90" rx="118.079" ry="18"/>
<text text-anchor="middle" x="418.299" y="-86.3" font-family="Times,serif" font-size="14.00">[13, 15], color: RED, max: 15</text>
</g>
<!-- N139640555099992&#45;&gt;N139640555100280 -->
<g id="edge9" class="edge"><title>N139640555099992&#45;&gt;N139640555100280</title>
<path fill="none" stroke="black" d="M413.029,-143.697C413.8,-135.983 414.727,-126.712 415.587,-118.112"/>
<polygon fill="black" stroke="black" points="419.076,-118.403 416.588,-108.104 412.11,-117.706 419.076,-118.403"/>
</g>
<!-- N139640555100280&#45;&gt;N139640555100208 -->
<g id="edge7" class="edge"><title>N139640555100280&#45;&gt;N139640555100208</title>
<path fill="none" stroke="black" d="M394.749,-72.055C384.918,-63.4984 373.728,-52.9594 364.411,-43.5352"/>
<polygon fill="black" stroke="black" points="366.865,-41.0383 357.401,-36.2753 361.829,-45.9004 366.865,-41.0383"/>
</g>
<!-- N139640555100280&#45;&gt;N139640555100208 -->
<g id="edge8" class="edge"><title>N139640555100280&#45;&gt;N139640555100208</title>
<path fill="none" stroke="black" d="M406.506,-72.055C398.149,-63.1336 386.773,-52.0572 376.04,-42.3361"/>
<polygon fill="black" stroke="black" points="378.193,-39.5674 368.391,-35.5475 373.547,-44.803 378.193,-39.5674"/>
</g>
<!-- N139640555100064&#45;&gt;N139640555100208 -->
<g id="edge12" class="edge"><title>N139640555100064&#45;&gt;N139640555100208</title>
<path fill="none" stroke="black" d="M603.797,-75.3371C546.321,-63.4201 465.421,-46.1663 409.463,-33.8979"/>
<polygon fill="black" stroke="black" points="410.182,-30.4725 399.664,-31.7442 408.68,-37.3093 410.182,-30.4725"/>
</g>
<!-- N139640555100064&#45;&gt;N139640555100208 -->
<g id="edge13" class="edge"><title>N139640555100064&#45;&gt;N139640555100208</title>
<path fill="none" stroke="black" d="M611.316,-74.5808C555.378,-62.3037 473.267,-44.7867 415.054,-32.7155"/>
<polygon fill="black" stroke="black" points="415.702,-29.2756 405.2,-30.6772 414.284,-36.1305 415.702,-29.2756"/>
</g>
</g>
</svg>
