<?xml version="1.0" encoding="UTF-8" standalone="no"?>
<!DOCTYPE svg PUBLIC "-//W3C//DTD SVG 1.1//EN"
 "http://www.w3.org/Graphics/SVG/1.1/DTD/svg11.dtd">
<!-- Generated by graphviz version 2.38.0 (20140413.2041)
 -->
<!-- Title: red_black_tree Pages: 1 -->
<svg width="784pt" height="260pt"
 viewBox="0.00 0.00 783.68 260.00" xmlns="http://www.w3.org/2000/svg" xmlns:xlink="http://www.w3.org/1999/xlink">
<g id="graph0" class="graph" transform="scale(1 1) rotate(0) translate(4 256)">
<title>red_black_tree</title>
<polygon fill="white" stroke="none" points="-4,4 -4,-256 779.679,-256 779.679,4 -4,4"/>
<!-- N139640555099704 -->
<g id="node1" class="node"><title>N139640555099704</title>
<ellipse fill="none" stroke="BLACK" cx="437.39" cy="-234" rx="130.777" ry="18"/>
<text text-anchor="middle" x="437.39" y="-230.3" font-family="Times,serif" font-size="14.00">[15, 20], color: BLACK, max: 40</text>
</g>
<!-- N139640555099776 -->
<g id="node2" class="node"><title>N139640555099776</title>
<ellipse fill="none" stroke="BLACK" cx="298.39" cy="-162" rx="130.777" ry="18"/>
<text text-anchor="middle" x="298.39" y="-158.3" font-family="Times,serif" font-size="14.00">[10, 30], color: BLACK, max: 30</text>
</g>
<!-- N139640555099704&#45;&gt;N139640555099776 -->
<g id="edge7" class="edge"><title>N139640555099704&#45;&gt;N139640555099776</title>
<path fill="none" stroke="black" d="M404.449,-216.411C385.234,-206.734 360.807,-194.433 340.24,-184.076"/>
<polygon fill="black" stroke="black" points="341.6,-180.842 331.094,-179.47 338.452,-187.094 341.6,-180.842"/>
</g>
<!-- N139640555099848 -->
<g id="node6" class="node"><title>N139640555099848</title>
<ellipse fill="none" stroke="BLACK" cx="577.39" cy="-162" rx="130.777" ry="18"/>
<text text-anchor="middle" x="577.39" y="-158.3" font-family="Times,serif" font-size="14.00">[17, 19], color: BLACK, max: 40</text>
</g>
<!-- N139640555099704&#45;&gt;N139640555099848 -->
<g id="edge12" class="edge"><title>N139640555099704&#45;&gt;N139640555099848</title>
<path fill="none" stroke="black" d="M470.568,-216.411C489.921,-206.734 514.524,-194.433 535.239,-184.076"/>
<polygon fill="black" stroke="black" points="537.071,-187.073 544.45,-179.47 533.94,-180.812 537.071,-187.073"/>
</g>
<!-- N139640555099920 -->
<g id="node3" class="node"><title>N139640555099920</title>
<ellipse fill="none" stroke="RED" cx="114.39" cy="-90" rx="114.28" ry="18"/>
<text text-anchor="middle" x="114.39" y="-86.3" font-family="Times,serif" font-size="14.00">[5, 20], color: RED, max: 20</text>
</g>
<!-- N139640555099776&#45;&gt;N139640555099920 -->
<g id="edge3" class="edge"><title>N139640555099776&#45;&gt;N139640555099920</title>
<path fill="none" stroke="black" d="M256.177,-144.941C229.2,-134.678 194.05,-121.306 165.498,-110.443"/>
<polygon fill="black" stroke="black" points="166.68,-107.148 156.089,-106.864 164.191,-113.691 166.68,-107.148"/>
</g>
<!-- N139640555099992 -->
<g id="node5" class="node"><title>N139640555099992</title>
<ellipse fill="none" stroke="RED" cx="365.39" cy="-90" rx="118.079" ry="18"/>
<text text-anchor="middle" x="365.39" y="-86.3" font-family="Times,serif" font-size="14.00">[12, 15], color: RED, max: 15</text>
</g>
<!-- N139640555099776&#45;&gt;N139640555099992 -->
<g id="edge6" class="edge"><title>N139640555099776&#45;&gt;N139640555099992</title>
<path fill="none" stroke="black" d="M314.609,-144.055C322.798,-135.498 332.886,-124.959 341.906,-115.535"/>
<polygon fill="black" stroke="black" points="344.469,-117.92 348.855,-108.275 339.412,-113.079 344.469,-117.92"/>
</g>
<!-- N139640555100208 -->
<g id="node4" class="node"><title>N139640555100208</title>
<ellipse fill="none" stroke="BLACK" cx="365.39" cy="-18" rx="83.6854" ry="18"/>
<text text-anchor="middle" x="365.39" y="-14.3" font-family="Times,serif" font-size="14.00">Sentinel empty node</text>
</g>
<!-- N139640555099920&#45;&gt;N139640555100208 -->
<g id="edge1" class="edge"><title>N139640555099920&#45;&gt;N139640555100208</title>
<path fill="none" stroke="black" d="M163.474,-73.7247C203.43,-62.1925 259.972,-46.4185 303.104,-34.7678"/>
<polygon fill="black" stroke="black" points="304.178,-38.1033 312.925,-32.1243 302.359,-31.3439 304.178,-38.1033"/>
</g>
<!-- N139640555099920&#45;&gt;N139640555100208 -->
<g id="edge2" class="edge"><title>N139640555099920&#45;&gt;N139640555100208</title>
<path fill="none" stroke="black" d="M172.306,-74.4109C213.817,-63.232 269.308,-47.7829 310.189,-36.0368"/>
<polygon fill="black" stroke="black" points="311.348,-39.3452 319.987,-33.2113 309.408,-32.6192 311.348,-39.3452"/>
</g>
<!-- N139640555099992&#45;&gt;N139640555100208 -->
<g id="edge4" class="edge"><title>N139640555099992&#45;&gt;N139640555100208</title>
<path fill="none" stroke="black" d="M359.474,-71.6966C358.678,-63.9827 358.452,-54.7125 358.795,-46.1124"/>
<polygon fill="black" stroke="black" points="362.288,-46.3243 359.495,-36.1043 355.305,-45.8356 362.288,-46.3243"/>
</g>
<!-- N139640555099992&#45;&gt;N139640555100208 -->
<g id="edge5" class="edge"><title>N139640555099992&#45;&gt;N139640555100208</title>
<path fill="none" stroke="black" d="M371.306,-71.6966C372.101,-63.9827 372.328,-54.7125 371.985,-46.1124"/>
<polygon fill="black" stroke="black" points="375.474,-45.8356 371.285,-36.1043 368.491,-46.3243 375.474,-45.8356"/>
</g>
<!-- N139640555099848&#45;&gt;N139640555100208 -->
<g id="edge8" class="edge"><title>N139640555099848&#45;&gt;N139640555100208</title>
<path fill="none" stroke="black" d="M562.555,-143.863C542.643,-121.153 507.976,-82.706 492.39,-72 470.764,-57.1457 444.323,-45.2829 421.177,-36.5784"/>
<polygon fill="black" stroke="black" points="422.076,-33.181 411.482,-33.0418 419.677,-39.7571 422.076,-33.181"/>
</g>
<!-- N139640555100064 -->
<g id="node7" class="node"><title>N139640555100064</title>
<ellipse fill="none" stroke="RED" cx="657.39" cy="-90" rx="118.079" ry="18"/>
<text text-anchor="middle" x="657.39" y="-86.3" font-family="Times,serif" font-size="14.00">[30, 40], color: RED, max: 40</text>
</g>
<!-- N139640555099848&#45;&gt;N139640555100064 -->
<g id="edge11" class="edge"><title>N139640555099848&#45;&gt;N139640555100064</title>
<path fill="none" stroke="black" d="M596.756,-144.055C606.877,-135.199 619.426,-124.219 630.476,-114.549"/>
<polygon fill="black" stroke="black" points="632.981,-117.008 638.202,-107.789 628.372,-111.74 632.981,-117.008"/>
</g>
<!-- N139640555100064&#45;&gt;N139640555100208 -->
<g id="edge9" class="edge"><title>N139640555100064&#45;&gt;N139640555100208</title>
<path fill="none" stroke="black" d="M592.751,-74.8345C542.891,-63.2483 474.513,-46.873 425.757,-34.8516"/>
<polygon fill="black" stroke="black" points="426.519,-31.4348 415.971,-32.432 424.839,-38.2302 426.519,-31.4348"/>
</g>
<!-- N139640555100064&#45;&gt;N139640555100208 -->
<g id="edge10" class="edge"><title>N139640555100064&#45;&gt;N139640555100208</title>
<path fill="none" stroke="black" d="M601.1,-74.1548C552.84,-62.2279 483.322,-45.5643 432.246,-33.6811"/>
<polygon fill="black" stroke="black" points="432.821,-30.2216 422.289,-31.371 431.239,-37.0405 432.821,-30.2216"/>
</g>
</g>
</svg>
