<?xml version="1.0" encoding="UTF-8" standalone="no"?>
<!DOCTYPE svg PUBLIC "-//W3C//DTD SVG 1.1//EN"
 "http://www.w3.org/Graphics/SVG/1.1/DTD/svg11.dtd">
<!-- Generated by graphviz version 2.38.0 (20140413.2041)
 -->
<!-- Title: red_black_tree Pages: 1 -->
<svg width="892pt" height="332pt"
 viewBox="0.00 0.00 892.38 332.00" xmlns="http://www.w3.org/2000/svg" xmlns:xlink="http://www.w3.org/1999/xlink">
<g id="graph0" class="graph" transform="scale(1 1) rotate(0) translate(4 328)">
<title>red_black_tree</title>
<polygon fill="white" stroke="none" points="-4,4 -4,-328 888.378,-328 888.378,4 -4,4"/>
<!-- N140089179362440 -->
<g id="node1" class="node"><title>N140089179362440</title>
<ellipse fill="none" stroke="BLACK" cx="507.089" cy="-306" rx="130.777" ry="18"/>
<text text-anchor="middle" x="507.089" y="-302.3" font-family="Times,serif" font-size="14.00">[15, 20], color: BLACK, max: 40</text>
</g>
<!-- N140089179362512 -->
<g id="node2" class="node"><title>N140089179362512</title>
<ellipse fill="none" stroke="RED" cx="401.089" cy="-234" rx="118.079" ry="18"/>
<text text-anchor="middle" x="401.089" y="-230.3" font-family="Times,serif" font-size="14.00">[10, 30], color: RED, max: 30</text>
</g>
<!-- N140089179362440&#45;&gt;N140089179362512 -->
<g id="edge11" class="edge"><title>N140089179362440&#45;&gt;N140089179362512</title>
<path fill="none" stroke="black" d="M481.699,-288.233C467.67,-278.969 450.061,-267.34 434.882,-257.316"/>
<polygon fill="black" stroke="black" points="436.545,-254.22 426.271,-251.63 432.687,-260.061 436.545,-254.22"/>
</g>
<!-- N140089179362584 -->
<g id="node8" class="node"><title>N140089179362584</title>
<ellipse fill="none" stroke="BLACK" cx="680.089" cy="-162" rx="130.777" ry="18"/>
<text text-anchor="middle" x="680.089" y="-158.3" font-family="Times,serif" font-size="14.00">[17, 19], color: BLACK, max: 40</text>
</g>
<!-- N140089179362440&#45;&gt;N140089179362584 -->
<g id="edge16" class="edge"><title>N140089179362440&#45;&gt;N140089179362584</title>
<path fill="none" stroke="black" d="M527.614,-288.153C558.438,-262.852 616.781,-214.964 651.677,-186.321"/>
<polygon fill="black" stroke="black" points="654.082,-188.875 659.591,-179.825 649.641,-183.464 654.082,-188.875"/>
</g>
<!-- N140089179362656 -->
<g id="node3" class="node"><title>N140089179362656</title>
<ellipse fill="none" stroke="BLACK" cx="126.089" cy="-162" rx="126.178" ry="18"/>
<text text-anchor="middle" x="126.089" y="-158.3" font-family="Times,serif" font-size="14.00">[5, 20], color: BLACK, max: 20</text>
</g>
<!-- N140089179362512&#45;&gt;N140089179362656 -->
<g id="edge5" class="edge"><title>N140089179362512&#45;&gt;N140089179362656</title>
<path fill="none" stroke="black" d="M343.104,-218.24C299.796,-207.216 240.451,-192.11 194.766,-180.481"/>
<polygon fill="black" stroke="black" points="195.496,-177.056 184.941,-177.981 193.769,-183.839 195.496,-177.056"/>
</g>
<!-- N140089179362728 -->
<g id="node6" class="node"><title>N140089179362728</title>
<ellipse fill="none" stroke="BLACK" cx="401.089" cy="-162" rx="130.777" ry="18"/>
<text text-anchor="middle" x="401.089" y="-158.3" font-family="Times,serif" font-size="14.00">[12, 15], color: BLACK, max: 15</text>
</g>
<!-- N140089179362512&#45;&gt;N140089179362728 -->
<g id="edge10" class="edge"><title>N140089179362512&#45;&gt;N140089179362728</title>
<path fill="none" stroke="black" d="M401.089,-215.697C401.089,-207.983 401.089,-198.712 401.089,-190.112"/>
<polygon fill="black" stroke="black" points="404.589,-190.104 401.089,-180.104 397.589,-190.104 404.589,-190.104"/>
</g>
<!-- N140089179362944 -->
<g id="node4" class="node"><title>N140089179362944</title>
<ellipse fill="none" stroke="BLACK" cx="474.089" cy="-18" rx="83.6854" ry="18"/>
<text text-anchor="middle" x="474.089" y="-14.3" font-family="Times,serif" font-size="14.00">Sentinel empty node</text>
</g>
<!-- N140089179362656&#45;&gt;N140089179362944 -->
<g id="edge1" class="edge"><title>N140089179362656&#45;&gt;N140089179362944</title>
<path fill="none" stroke="black" d="M100.048,-144.149C74.5963,-125.649 42.4625,-95.457 63.0888,-72 83.9565,-48.2685 269.774,-32.147 384.297,-24.3681"/>
<polygon fill="black" stroke="black" points="384.721,-27.8476 394.465,-23.6865 384.253,-20.8632 384.721,-27.8476"/>
</g>
<!-- N140089179363088 -->
<g id="node5" class="node"><title>N140089179363088</title>
<ellipse fill="none" stroke="RED" cx="186.089" cy="-90" rx="114.28" ry="18"/>
<text text-anchor="middle" x="186.089" y="-86.3" font-family="Times,serif" font-size="14.00">[7, 10], color: RED, max: 10</text>
</g>
<!-- N140089179362656&#45;&gt;N140089179363088 -->
<g id="edge4" class="edge"><title>N140089179362656&#45;&gt;N140089179363088</title>
<path fill="none" stroke="black" d="M140.613,-144.055C147.802,-135.668 156.624,-125.376 164.578,-116.096"/>
<polygon fill="black" stroke="black" points="167.431,-118.146 171.281,-108.275 162.116,-113.59 167.431,-118.146"/>
</g>
<!-- N140089179363088&#45;&gt;N140089179362944 -->
<g id="edge2" class="edge"><title>N140089179363088&#45;&gt;N140089179362944</title>
<path fill="none" stroke="black" d="M241.53,-74.1548C289.109,-62.2279 357.674,-45.5643 408.071,-33.6811"/>
<polygon fill="black" stroke="black" points="408.963,-37.0669 417.897,-31.371 407.361,-30.2527 408.963,-37.0669"/>
</g>
<!-- N140089179363088&#45;&gt;N140089179362944 -->
<g id="edge3" class="edge"><title>N140089179363088&#45;&gt;N140089179362944</title>
<path fill="none" stroke="black" d="M249.561,-74.9187C298.635,-63.3641 366.018,-47.005 414.174,-34.965"/>
<polygon fill="black" stroke="black" points="415.297,-38.292 424.145,-32.4647 413.594,-31.5023 415.297,-38.292"/>
</g>
<!-- N140089179362728&#45;&gt;N140089179362944 -->
<g id="edge6" class="edge"><title>N140089179362728&#45;&gt;N140089179362944</title>
<path fill="none" stroke="black" d="M376.443,-144.094C365.232,-134.88 353.138,-122.414 347.089,-108 340.897,-93.2467 338.217,-85.3153 347.089,-72 359.61,-53.2062 380.199,-41.0653 401.191,-33.2267"/>
<polygon fill="black" stroke="black" points="402.513,-36.4736 410.837,-29.9194 400.242,-29.852 402.513,-36.4736"/>
</g>
<!-- N140089179363016 -->
<g id="node7" class="node"><title>N140089179363016</title>
<ellipse fill="none" stroke="RED" cx="474.089" cy="-90" rx="118.079" ry="18"/>
<text text-anchor="middle" x="474.089" y="-86.3" font-family="Times,serif" font-size="14.00">[13, 15], color: RED, max: 15</text>
</g>
<!-- N140089179362728&#45;&gt;N140089179363016 -->
<g id="edge9" class="edge"><title>N140089179362728&#45;&gt;N140089179363016</title>
<path fill="none" stroke="black" d="M418.76,-144.055C427.839,-135.349 439.058,-124.591 449.015,-115.043"/>
<polygon fill="black" stroke="black" points="451.532,-117.479 456.327,-108.032 446.687,-112.427 451.532,-117.479"/>
</g>
<!-- N140089179363016&#45;&gt;N140089179362944 -->
<g id="edge7" class="edge"><title>N140089179363016&#45;&gt;N140089179362944</title>
<path fill="none" stroke="black" d="M468.173,-71.6966C467.377,-63.9827 467.151,-54.7125 467.494,-46.1124"/>
<polygon fill="black" stroke="black" points="470.987,-46.3243 468.194,-36.1043 464.004,-45.8356 470.987,-46.3243"/>
</g>
<!-- N140089179363016&#45;&gt;N140089179362944 -->
<g id="edge8" class="edge"><title>N140089179363016&#45;&gt;N140089179362944</title>
<path fill="none" stroke="black" d="M480.005,-71.6966C480.8,-63.9827 481.027,-54.7125 480.684,-46.1124"/>
<polygon fill="black" stroke="black" points="484.173,-45.8356 479.984,-36.1043 477.19,-46.3243 484.173,-45.8356"/>
</g>
<!-- N140089179362584&#45;&gt;N140089179362944 -->
<g id="edge12" class="edge"><title>N140089179362584&#45;&gt;N140089179362944</title>
<path fill="none" stroke="black" d="M666.414,-143.84C648.038,-121.104 615.969,-82.6254 601.089,-72 579.993,-56.9361 553.966,-45.1208 530.977,-36.5063"/>
<polygon fill="black" stroke="black" points="531.928,-33.1283 521.334,-33.0102 529.542,-39.7091 531.928,-33.1283"/>
</g>
<!-- N140089179362800 -->
<g id="node9" class="node"><title>N140089179362800</title>
<ellipse fill="none" stroke="RED" cx="766.089" cy="-90" rx="118.079" ry="18"/>
<text text-anchor="middle" x="766.089" y="-86.3" font-family="Times,serif" font-size="14.00">[30, 40], color: RED, max: 40</text>
</g>
<!-- N140089179362584&#45;&gt;N140089179362800 -->
<g id="edge15" class="edge"><title>N140089179362584&#45;&gt;N140089179362800</title>
<path fill="none" stroke="black" d="M700.907,-144.055C711.893,-135.113 725.539,-124.005 737.502,-114.268"/>
<polygon fill="black" stroke="black" points="739.916,-116.816 745.462,-107.789 735.497,-111.387 739.916,-116.816"/>
</g>
<!-- N140089179362800&#45;&gt;N140089179362944 -->
<g id="edge13" class="edge"><title>N140089179362800&#45;&gt;N140089179362944</title>
<path fill="none" stroke="black" d="M701.45,-74.8345C651.59,-63.2483 583.212,-46.873 534.455,-34.8516"/>
<polygon fill="black" stroke="black" points="535.218,-31.4348 524.67,-32.432 533.538,-38.2302 535.218,-31.4348"/>
</g>
<!-- N140089179362800&#45;&gt;N140089179362944 -->
<g id="edge14" class="edge"><title>N140089179362800&#45;&gt;N140089179362944</title>
<path fill="none" stroke="black" d="M709.799,-74.1548C661.539,-62.2279 592.021,-45.5643 540.945,-33.6811"/>
<polygon fill="black" stroke="black" points="541.52,-30.2216 530.988,-31.371 539.938,-37.0405 541.52,-30.2216"/>
</g>
</g>
</svg>
